<?xml version="1.0"?>
<svg xmlns="http://www.w3.org/2000/svg" id="Layer_1" data-name="Layer 1" viewBox="0 0 512 512" width="512" height="512"><title>Pipeline</title><path d="M391.012,290H369.906a7.989,7.989,0,0,0-15.812,0H345V265.339c0-4.418-3.146-8.339-7.564-8.339H283V213.328a100.1,100.1,0,1,0-54,0V257H174.564c-4.418,0-7.564,3.921-7.564,8.339V290H155.906a7.989,7.989,0,0,0-15.812,0H120.988A82.95,82.95,0,0,0,38,372.848v114.3A7.863,7.863,0,0,0,45.982,495h64.291A7.65,7.65,0,0,0,118,487.144v-114.3A3.08,3.08,0,0,1,120.988,370H140v6a8,8,0,0,0,16,0v-6H354v6a8,8,0,0,0,16,0v-6h21.012A3.08,3.08,0,0,1,394,372.848v114.3A7.65,7.65,0,0,0,401.727,495h64.291A7.863,7.863,0,0,0,474,487.144v-114.3A82.95,82.95,0,0,0,391.012,290ZM140,354H120.988A19.086,19.086,0,0,0,102,372.848V479H54V372.848A66.932,66.932,0,0,1,120.988,306H140Zm62.5-172.253,10.823-10.824A8,8,0,1,0,202.01,159.61l-10.822,10.856A84.181,84.181,0,0,1,172.312,125h15.335a8,8,0,0,0,0-16H172.312a84.388,84.388,0,0,1,18.876-45.532L202.01,74.275a8.005,8.005,0,0,0,11.314-11.328L202.5,52.122A83.707,83.707,0,0,1,248,33.246V48.582a8,8,0,0,0,16,0V33.246a83.7,83.7,0,0,1,45.5,18.875L298.676,62.945A8,8,0,1,0,309.99,74.258l10.822-10.79A84.388,84.388,0,0,1,339.688,109H324.353a8,8,0,0,0,0,16h15.335a84.181,84.181,0,0,1-18.876,45.466l-10.822-10.84a8,8,0,1,0-11.314,11.3L309.5,181.749A83.7,83.7,0,0,1,264,200.622V185.287a8,8,0,0,0-16,0v15.335A83.7,83.7,0,0,1,202.5,181.747ZM267,216.413V257H245V216.413a101.3,101.3,0,0,0,22,0ZM183,273H329v17H183Zm171,81H156V306H354ZM458,479H410V372.848A19.086,19.086,0,0,0,391.012,354H370V306h21.012A66.932,66.932,0,0,1,458,372.848Z"/><path d="M273.891,116.934A17.9,17.9,0,0,0,264,100.955V76.827a8,8,0,0,0-16,0v24.128a17.882,17.882,0,1,0,25.891,15.979Zm-19.782,0a1.893,1.893,0,0,1,1.152-1.739c.244.022.49.037.739.037s.5-.015.739-.037a1.89,1.89,0,1,1-2.63,1.739Z"/></svg>
