<svg height="512pt" viewBox="0 -32 512.001 512" width="512pt" xmlns="http://www.w3.org/2000/svg"><path d="m496.070312 94.589844h-30.152343v-79.15625c0-8.507813-6.921875-15.433594-15.433594-15.433594h-332.933594c-4.125 0-7.46875 3.34375-7.46875 7.46875s3.34375 7.46875 7.46875 7.46875h332.933594c.277344 0 .5.222656.5.496094v376.066406h-6.578125c-5.210938-15.136719-18.648438-26.367188-34.960938-28.460938v-194.523437c9.796876-2.054687 17.175782-10.757813 17.175782-21.15625v-53.832031c0-11.921875-9.699219-21.621094-21.621094-21.621094h-53.832031c-11.921875 0-21.621094 9.699219-21.621094 21.621094v53.832031c0 10.398437 7.378906 19.101563 17.171875 21.15625v145.644531c-.0625 0-.128906-.007812-.191406-.007812-11.660156-.300782-22.6875 3.988281-31.039063 12.117187-8.351562 8.128907-12.949219 19.023438-12.949219 30.679688 0 2.015625.136719 4.011719.414063 5.984375-1.554687-.167969-3.121094-.253906-4.695313-.253906-3.867187 0-7.652343.535156-11.277343 1.523437v-126.402344c0-4.125-3.34375-7.46875-7.46875-7.46875-4.121094 0-7.464844 3.34375-7.464844 7.46875v133.859375c-2.753906 2.132813-5.265625 4.597656-7.453125 7.378906-3.621094-4.613281-8.148438-8.429687-13.300781-11.214843 5.96875-8.105469 8.9375-18.132813 8.25-28.339844-.953125-14.160156-8.882813-26.480469-20.355469-33.542969v-161.601562c0-9.058594 7.371094-16.429688 16.429688-16.429688 9.058593 0 16.429687 7.371094 16.429687 16.429688v57.949218c0 4.125 3.34375 7.464844 7.46875 7.464844 4.121094 0 7.464844-3.339844 7.464844-7.464844v-33.773437c9.796875-2.054687 17.171875-10.757813 17.171875-21.15625v-53.832031c0-11.921875-9.699219-21.621094-21.621094-21.621094h-53.828125c-11.921875 0-21.621094 9.699219-21.621094 21.621094v53.832031c0 10.398437 7.378907 19.101563 17.171875 21.15625v131.746094c-1.445312-.253907-2.914062-.441407-4.40625-.542969-12.023437-.824219-23.460937 3.222656-32.230468 11.40625-8.644532 8.070312-13.601563 19.476562-13.601563 31.300781 0 .398438.003906.792969.015625 1.191407-3.09375-.71875-6.273438-1.085938-9.515625-1.101563v-174c9.792969-2.054687 17.171875-10.761719 17.171875-21.15625v-53.832031c0-11.921875-9.699219-21.621094-21.621094-21.621094h-53.832031c-11.921875 0-21.621094 9.699219-21.621094 21.621094v53.832031c0 10.394531 7.378907 19.101563 17.171875 21.15625v161.679687c-14.582031 5.363282-25.472656 18.4375-27.671875 34.265626-13.417969 3.957031-23.8125 14.109374-28.222656 27.039062h-29.960937c-.546876 0-.996094-.449219-.996094-.996094v-279.984375c0-.546875.449218-.992187.996094-.992187h30.152343v234.808594c0 4.125 3.34375 7.46875 7.46875 7.46875s7.46875-3.34375 7.46875-7.46875v-328.902344c0-.273438.222657-.496094.496094-.496094h22.183594c4.121093 0 7.464843-3.34375 7.464843-7.46875s-3.339843-7.46875-7.464843-7.46875h-22.183594c-8.511719 0-15.433594 6.921875-15.433594 15.433594v79.15625h-30.152343c-8.785157 0-15.929688 7.144531-15.929688 15.929687v279.984375c0 8.785156 7.144531 15.929688 15.929688 15.929688h27.675781c.246093 10.785156 4.621093 20.988281 12.429687 28.847656 8.222656 8.277344 19.558594 13.023438 31.101563 13.023438h316.792969c11.820312 0 23.226562-4.957032 31.300781-13.601563 7.277343-7.796875 11.277343-17.714844 11.496093-28.269531h49.34375c8.785157 0 15.929688-7.144532 15.929688-15.929688v-279.984375c0-8.78125-7.144531-15.929687-15.929688-15.929687zm-274.054687 52.769531v-53.832031c0-3.6875 3-6.6875 6.683594-6.6875h53.832031c3.6875 0 6.6875 3 6.6875 6.6875v53.832031c0 1.976563-.871094 3.753906-2.238281 4.976563v-7.996094c0-17.292969-14.070313-31.363282-31.363281-31.363282-17.296876 0-31.363282 14.070313-31.363282 31.363282v7.996094c-1.371094-1.222657-2.238281-3-2.238281-4.976563zm122.464844 0v-53.832031c0-3.6875 3-6.6875 6.6875-6.6875h53.832031c3.6875 0 6.683594 3 6.683594 6.6875v53.832031c0 1.976563-.867188 3.753906-2.238282 4.976563v-7.996094c0-17.292969-14.066406-31.363282-31.363281-31.363282-17.292969 0-31.363281 14.070313-31.363281 31.363282v7.996094c-1.367188-1.222657-2.238281-3-2.238281-4.976563zm17.175781-3.019531c0-9.058594 7.367188-16.429688 16.425781-16.429688 9.058594 0 16.429688 7.371094 16.429688 16.429688v219.402344c-2.511719.566406-4.96875 1.347656-7.335938 2.355468.710938-3.257812 1.042969-6.597656.980469-9.949218-.316406-17.226563-11.292969-32.273438-26.5-38.695313zm-212.078125 198.871094c-8.042969-9.820313-19.953125-15.566407-32.855469-15.628907v-183.242187c0-9.058594 7.367188-16.429688 16.425782-16.429688 9.0625 0 16.429687 7.371094 16.429687 16.429688zm-50.03125-195.851563v-53.832031c0-3.6875 3-6.6875 6.6875-6.6875h53.828125c3.6875 0 6.6875 3 6.6875 6.6875v53.832031c0 1.976563-.867188 3.753906-2.238281 4.976563v-7.996094c0-17.292969-14.070313-31.363282-31.363281-31.363282-17.292969 0-31.363282 14.070313-31.363282 31.363282v7.996094c-1.371094-1.222657-2.238281-3-2.238281-4.976563zm324.765625 277.152344c-5.335938 5.714843-12.574219 8.859375-20.386719 8.859375h-316.789062c-7.59375 0-15.066407-3.140625-20.503907-8.613282-5.28125-5.316406-8.164062-12.230468-8.113281-19.460937.09375-13.613281 10.300781-25.382813 23.746094-27.375 3.664063-.542969 6.375-3.683594 6.375-7.386719 0-.078125 0-.15625-.003906-.238281.050781-15.328125 12.539062-27.785156 27.878906-27.785156 9.683594 0 18.53125 4.917969 23.667969 13.152343 2.765625 4.4375 8.265625 6.144532 13.078125 4.0625 3.496093-1.511718 7.210937-2.28125 11.046875-2.28125 4.289062 0 8.398437.949219 12.21875 2.816407 3.304687 1.617187 7.285156 1.160156 10.132812-1.164063 2.847656-2.320312 4.089844-6.121094 3.171875-9.675781-.585937-2.269531-.882812-4.625-.882812-6.996094 0-7.808593 3.144531-15.050781 8.859375-20.382812 5.710937-5.328125 13.171875-7.96875 21.011718-7.425781 13.792969.953124 24.894532 12.074218 25.820313 25.871093.539063 8.042969-2.394531 15.917969-8.054687 21.601563-2.53125 2.546875-3.578126 6.15625-2.792969 9.660156.78125 3.492188 3.257812 6.304688 6.625 7.523438 6.410156 2.316406 11.746093 6.90625 15.015625 12.917968 1.824218 3.351563 5.335937 5.433594 9.164062 5.433594 3.824219 0 7.332032-2.082031 9.152344-5.429688 4.894531-8.996093 14.28125-14.582031 24.503906-14.582031 3.113282 0 6.171875.511719 9.09375 1.523438 3.460938 1.199219 7.34375.277343 9.894532-2.351563 2.578124-2.660156 3.363281-6.464844 2.042968-9.9375-1.203125-3.15625-1.8125-6.488281-1.8125-9.898437 0-7.589844 2.996094-14.6875 8.433594-19.980469s12.625-8.09375 20.21875-7.890625c14.671875.394531 26.828125 12.660156 27.101562 27.34375.085938 4.703125-.960937 9.1875-3.105468 13.324219-2.394532 4.617187-1.089844 10.203125 3.097656 13.277344.222656.167968.445312.335937.667969.507812 3.792969 2.960938 9.089843 2.957031 12.882812-.007812 5.246094-4.105469 11.820313-6.195313 18.515625-5.878907 13.882813.65625 25.5 12.015625 26.453125 25.859375.539063 7.839844-2.097656 15.300782-7.425781 21.007813zm72.753906-34.007813c0 .550782-.449218.996094-.996094.996094h-30.152343v-281.972656h30.152343c.546876 0 .996094.445312.996094.992187zm0 0"/></svg>